<svg xmlns="http://www.w3.org/2000/svg" viewBox="40 10 113.756 130.300"><g fill-rule="evenodd" clip-rule="evenodd">
<path fill="#fefcff" d="M54.844 98.811l.188.466.186.421.258.421.257.375.328.327.351.304.374.258.444.187.515.14.561.047h.561l.538-.117 60.546-25.678.49-.233.446-.187.467-.211.443-.187.445-.234.422-.234.397-.21.375-.258.373-.304.351-.303.326-.328.305-.351.211-.398.234-.467.141-.468.115-.538.07-.561.047-.561-.047-.562-.023-.584-.117-.561-.068-.538-6.549-19.013-.164-.468-.188-.491-.185-.491-.188-.444-.211-.444-.258-.375-.302-.351-.352-.327-.375-.257-.467-.164-.537-.117-.562-.023h-.584l-.561.07-.539.117-44.62 17.539-.444.187-.421.234-.397.258-.421.233-.398.257-.421.211-.375.28-.374.281-.327.304-.35.351-.305.374-.257.375-.257.374-.234.398-.187.444-.187.467-.141.468-7.857 25.631-.141.538-.163.491-.117.467-.141.538-.116.492-.07.491-.047.56v.562l.117.608.163.492zM72.197 51.595l.117.444.186.467.211.398.187.421.281.304.257.281.305.234.327.233.421.141.397.14.491.047.492.046.256-.046.188-.047.491-.071.397-.116.468-.14 26.567-10.267.91-.351.399-.163.42-.141.375-.187.422-.163.373-.188.398-.14.373-.187.352-.234.326-.21.305-.258.304-.28.258-.281.209-.35.188-.328.117-.421.117-.444.07-.491.047-.515-.047-.538-.07-.467-.07-.492-.071-.444-.117-.468-.164-.444-6.57-18.101-.164-.421-.141-.397-.14-.421-.165-.374-.185-.374-.188-.374-.211-.375-.187-.327-.279-.304-.258-.304-.305-.257-.326-.188-.422-.187-.443-.07-.446-.047-.49.047-.445.07-.443.141-.422.163-.373.141-.68.28-13.33 5.332-.373.141-.374.233-.328.188-.35.257-.305.233-.28.258-.281.304-.211.327-.233.351-.141.374-.187.398-.117.421-.14.398-6.899 23.432-.14.421-.117.444-.117.398-.117.468-.093.444-.094.397-.07.421v.866l.046.444.071.445zM114.127  4.49-.116.023zM133.912 82.206l-.141-.491-.187-.491-.164-.468-.186-.467-.211-.444-.234-.445-.256-.374-.304-.374-.305-.328-.373-.28-.399-.211-.49-.187-.492-.117h-.514l-.539.071-.513.116-.516.14-.49.164-.446.188-.49.187-.351.14-75.395 31.968-.468.187-.281.117-.187.07-.468.187-.444.234-.374.258-.398.256-.35.282-.328.327-.351.327-.257.374-.257.374-.257.422-.234.421-.187.444-.211.445-.163.444-4.491 15.504-.14.469-.163.49-.094.538-.093.561-.024.585v.561l.117.608.14.561.257.445.258.42.351.328.374.258.397.233.468.187.514.117.562.094.608.047h42.351l.585-.047.561-.094.491-.164.422-.21.374-.304.327-.304.257-.421.234-.398.187-.444.141-.491.093-.538.094-.515.046-.514v-10.15l.047-.631.07-.561.187-.491.187-.421.305-.375.327-.28.374-.28.444-.211.538-.164.515-.07.561-.023.561.023.515.117.467.14.374.211.047.024.374.257.327.303.281.421.188.445.14.514.071.609.047.584v8.793l.07.655.047.632.023.584.115.608.141.515.164.467.211.445.281.397.256.351.328.328.373.257.446.186.49.118.445.07.49.047h45.58l.561-.141.563-.094.49-.093.513-.163.493-.141.42-.234.375-.304.326-.327.258-.327.234-.468.187-.445.118-.561.07-.561.023-.514v-.538l-.023-.562-.047-.56-.07-.563-.117-.561-.118-.514-.14-.515-.141-.49-.164-.538-.139-.469-17.072-45.789zM77.879 "/></g></svg>